# Blender 4.4.3
# www.blender.org
mtllib ObjetPourPaul.mtl
o Cube
v 0.100000 3.750000 -6.000000
v 0.100000 7.500000 -3.000000
v 0.100000 4.336629 -5.963065
v 0.100000 4.908813 -5.853169
v 0.100000 5.452464 -5.673019
v 0.100000 5.954195 -5.427051
v 0.100000 6.401650 -5.121321
v 0.100000 6.783813 -4.763356
v 0.100000 7.091274 -4.361971
v 0.100000 7.316462 -3.927051
v 0.100000 7.453831 -3.469303
v 0.100000 -7.500000 -3.000000
v 0.100000 -3.750000 -6.000000
v 0.100000 -7.453831 -3.469303
v 0.100000 -7.316462 -3.927051
v 0.100000 -7.091274 -4.361971
v 0.100000 -6.783813 -4.763356
v 0.100000 -6.401650 -5.121321
v 0.100000 -5.954195 -5.427051
v 0.100000 -5.452464 -5.673019
v 0.100000 -4.908813 -5.853169
v 0.100000 -4.336629 -5.963065
v 0.100000 7.500000 3.000000
v 0.100000 3.750000 6.000000
v 0.100000 7.453831 3.469303
v 0.100000 7.316462 3.927051
v 0.100000 7.091274 4.361971
v 0.100000 6.783813 4.763356
v 0.100000 6.401650 5.121321
v 0.100000 5.954195 5.427051
v 0.100000 5.452464 5.673019
v 0.100000 4.908813 5.853169
v 0.100000 4.336629 5.963065
v 0.100000 -3.750000 6.000000
v 0.100000 -7.500000 3.000000
v 0.100000 -4.336629 5.963065
v 0.100000 -4.908813 5.853169
v 0.100000 -5.452464 5.673019
v 0.100000 -5.954195 5.427051
v 0.100000 -6.401650 5.121321
v 0.100000 -6.783813 4.763356
v 0.100000 -7.091274 4.361971
v 0.100000 -7.316462 3.927051
v 0.100000 -7.453831 3.469303
v -0.100000 7.500000 -3.000000
v -0.100000 3.750000 -6.000000
v -0.100000 7.453831 -3.469303
v -0.100000 7.316462 -3.927051
v -0.100000 7.091274 -4.361971
v -0.100000 6.783813 -4.763356
v -0.100000 6.401650 -5.121321
v -0.100000 5.954195 -5.427051
v -0.100000 5.452464 -5.673019
v -0.100000 4.908813 -5.853169
v -0.100000 4.336629 -5.963065
v -0.100000 -3.750000 -6.000000
v -0.100000 -7.500000 -3.000000
v -0.100000 -4.336629 -5.963065
v -0.100000 -4.908813 -5.853169
v -0.100000 -5.452464 -5.673019
v -0.100000 -5.954195 -5.427051
v -0.100000 -6.401650 -5.121321
v -0.100000 -6.783813 -4.763356
v -0.100000 -7.091274 -4.361971
v -0.100000 -7.316462 -3.927051
v -0.100000 -7.453831 -3.469303
v -0.100000 3.750000 6.000000
v -0.100000 7.500000 3.000000
v -0.100000 4.336629 5.963065
v -0.100000 4.908813 5.853169
v -0.100000 5.452464 5.673019
v -0.100000 5.954195 5.427051
v -0.100000 6.401650 5.121321
v -0.100000 6.783813 4.763356
v -0.100000 7.091274 4.361971
v -0.100000 7.316462 3.927051
v -0.100000 7.453831 3.469303
v -0.100000 -7.500000 3.000000
v -0.100000 -3.750000 6.000000
v -0.100000 -7.453831 3.469303
v -0.100000 -7.316462 3.927051
v -0.100000 -7.091274 4.361971
v -0.100000 -6.783813 4.763356
v -0.100000 -6.401650 5.121321
v -0.100000 -5.954195 5.427051
v -0.100000 -5.452464 5.673019
v -0.100000 -4.908813 5.853169
v -0.100000 -4.336629 5.963065
vn -0.0000 -1.0000 -0.0000
vn -1.0000 -0.0000 -0.0000
vn -0.0000 -0.0000 1.0000
vn -0.0000 1.0000 -0.0000
vn 1.0000 -0.0000 -0.0000
vn -0.0000 -0.9952 -0.0979
vn -0.0000 -0.9578 -0.2874
vn -0.0000 -0.8880 -0.4598
vn -0.0000 -0.7939 -0.6081
vn -0.0000 -0.6836 -0.7298
vn -0.0000 -0.5642 -0.8257
vn -0.0000 -0.4402 -0.8979
vn -0.0000 -0.3146 -0.9492
vn -0.0000 -0.1886 -0.9821
vn -0.0000 -0.0628 -0.9980
vn -0.0000 0.9952 0.0979
vn -0.0000 0.9578 0.2874
vn -0.0000 0.8880 0.4598
vn -0.0000 0.7939 0.6081
vn -0.0000 0.6836 0.7298
vn -0.0000 0.5642 0.8257
vn -0.0000 0.4402 0.8979
vn -0.0000 0.3146 0.9492
vn -0.0000 0.1886 0.9821
vn -0.0000 0.0628 0.9980
vn -0.0000 -0.9952 0.0979
vn -0.0000 -0.9578 0.2874
vn -0.0000 -0.8880 0.4598
vn -0.0000 -0.7939 0.6081
vn -0.0000 -0.6836 0.7298
vn -0.0000 -0.5642 0.8257
vn -0.0000 -0.4402 0.8979
vn -0.0000 -0.3146 0.9492
vn -0.0000 -0.1886 0.9821
vn -0.0000 -0.0628 0.9980
vn -0.0000 0.9952 -0.0979
vn -0.0000 0.9578 -0.2874
vn -0.0000 0.8880 -0.4598
vn -0.0000 0.7939 -0.6081
vn -0.0000 0.6836 -0.7298
vn -0.0000 0.5642 -0.8257
vn -0.0000 0.4402 -0.8979
vn -0.0000 0.3146 -0.9492
vn -0.0000 0.1886 -0.9821
vn -0.0000 0.0628 -0.9980
vn -0.0000 -0.0000 -1.0000
vt 0.125000 0.562500
vt 0.375000 0.562500
vt 0.375000 0.687500
vt 0.125000 0.687500
vt 0.375000 0.062500
vt 0.375769 0.052723
vt 0.378059 0.043186
vt 0.381812 0.034126
vt 0.386936 0.025763
vt 0.393306 0.018306
vt 0.400763 0.011936
vt 0.409126 0.006812
vt 0.418186 0.003059
vt 0.427723 0.000769
vt 0.437500 0.000000
vt 0.562500 0.000000
vt 0.572277 0.000769
vt 0.581814 0.003059
vt 0.590874 0.006812
vt 0.599237 0.011936
vt 0.606694 0.018306
vt 0.613064 0.025763
vt 0.618188 0.034126
vt 0.621941 0.043186
vt 0.624231 0.052723
vt 0.625000 0.062500
vt 0.625000 0.187500
vt 0.624231 0.197277
vt 0.621941 0.206814
vt 0.618188 0.215874
vt 0.613064 0.224237
vt 0.606694 0.231694
vt 0.599237 0.238064
vt 0.590874 0.243188
vt 0.581814 0.246941
vt 0.572277 0.249231
vt 0.562500 0.250000
vt 0.437500 0.250000
vt 0.427723 0.249231
vt 0.418186 0.246941
vt 0.409126 0.243188
vt 0.400763 0.238064
vt 0.393306 0.231694
vt 0.386936 0.224237
vt 0.381812 0.215874
vt 0.378059 0.206814
vt 0.375769 0.197277
vt 0.375000 0.187500
vt 0.437500 0.750000
vt 0.562500 0.750000
vt 0.562500 1.000000
vt 0.437500 1.000000
vt 0.625000 0.562500
vt 0.875000 0.562500
vt 0.875000 0.687500
vt 0.625000 0.687500
vt 0.375769 0.552723
vt 0.378059 0.543186
vt 0.381812 0.534126
vt 0.386936 0.525763
vt 0.393306 0.518306
vt 0.400763 0.511936
vt 0.409126 0.506812
vt 0.418186 0.503059
vt 0.427723 0.500769
vt 0.437500 0.500000
vt 0.562500 0.500000
vt 0.572277 0.500769
vt 0.581814 0.503059
vt 0.590874 0.506812
vt 0.599237 0.511936
vt 0.606694 0.518306
vt 0.613064 0.525763
vt 0.618188 0.534126
vt 0.621941 0.543186
vt 0.624231 0.552723
vt 0.624231 0.697277
vt 0.621941 0.706814
vt 0.618188 0.715874
vt 0.613064 0.724237
vt 0.606694 0.731694
vt 0.599237 0.738064
vt 0.590874 0.743188
vt 0.581814 0.746941
vt 0.572277 0.749231
vt 0.427723 0.749231
vt 0.418186 0.746941
vt 0.409126 0.743188
vt 0.400763 0.738064
vt 0.393306 0.731694
vt 0.386936 0.724237
vt 0.381812 0.715874
vt 0.378059 0.706814
vt 0.375769 0.697277
vt 0.125000 0.552723
vt 0.375000 0.552723
vt 0.125000 0.543186
vt 0.375000 0.543186
vt 0.125000 0.534126
vt 0.375000 0.534126
vt 0.125000 0.525763
vt 0.375000 0.525763
vt 0.125000 0.500000
vt 0.375000 0.500000
vt 0.375000 0.250000
vt 0.400763 0.250000
vt 0.400763 0.500000
vt 0.409126 0.250000
vt 0.409126 0.500000
vt 0.418186 0.250000
vt 0.418186 0.500000
vt 0.427723 0.250000
vt 0.427723 0.500000
vt 0.875000 0.697277
vt 0.625000 0.697277
vt 0.875000 0.706814
vt 0.625000 0.706814
vt 0.875000 0.715874
vt 0.625000 0.715874
vt 0.875000 0.724237
vt 0.625000 0.724237
vt 0.875000 0.750000
vt 0.625000 0.750000
vt 0.625000 1.000000
vt 0.599237 1.000000
vt 0.599237 0.750000
vt 0.590874 1.000000
vt 0.590874 0.750000
vt 0.581814 1.000000
vt 0.581814 0.750000
vt 0.572277 1.000000
vt 0.572277 0.750000
vt 0.375000 0.697277
vt 0.125000 0.697277
vt 0.375000 0.706814
vt 0.125000 0.706814
vt 0.375000 0.715874
vt 0.125000 0.715874
vt 0.375000 0.724237
vt 0.125000 0.724237
vt 0.375000 0.750000
vt 0.125000 0.750000
vt 0.375000 1.000000
vt 0.400763 0.750000
vt 0.400763 1.000000
vt 0.409126 0.750000
vt 0.409126 1.000000
vt 0.418186 0.750000
vt 0.418186 1.000000
vt 0.427723 0.750000
vt 0.427723 1.000000
vt 0.625000 0.552723
vt 0.875000 0.552723
vt 0.625000 0.543186
vt 0.875000 0.543186
vt 0.625000 0.534126
vt 0.875000 0.534126
vt 0.625000 0.525763
vt 0.875000 0.525763
vt 0.625000 0.500000
vt 0.875000 0.500000
vt 0.625000 0.250000
vt 0.599237 0.500000
vt 0.599237 0.250000
vt 0.590874 0.500000
vt 0.590874 0.250000
vt 0.581814 0.500000
vt 0.581814 0.250000
vt 0.572277 0.500000
vt 0.572277 0.250000
s 0
usemtl Material
f 57/1/1 12/2/1 35/3/1 78/4/1
f 78/5/2 80/6/2 81/7/2 82/8/2 83/9/2 84/10/2 85/11/2 86/12/2 87/13/2 88/14/2 79/15/2 67/16/2 69/17/2 70/18/2 71/19/2 72/20/2 73/21/2 74/22/2 75/23/2 76/24/2 77/25/2 68/26/2 45/27/2 47/28/2 48/29/2 49/30/2 50/31/2 51/32/2 52/33/2 53/34/2 54/35/2 55/36/2 46/37/2 56/38/2 58/39/2 59/40/2 60/41/2 61/42/2 62/43/2 63/44/2 64/45/2 65/46/2 66/47/2 57/48/2
f 34/49/3 24/50/3 67/51/3 79/52/3
f 2/53/4 45/54/4 68/55/4 23/56/4
f 12/2/5 14/57/5 15/58/5 16/59/5 17/60/5 18/61/5 19/62/5 20/63/5 21/64/5 22/65/5 13/66/5 1/67/5 3/68/5 4/69/5 5/70/5 6/71/5 7/72/5 8/73/5 9/74/5 10/75/5 11/76/5 2/53/5 23/56/5 25/77/5 26/78/5 27/79/5 28/80/5 29/81/5 30/82/5 31/83/5 32/84/5 33/85/5 24/50/5 34/49/5 36/86/5 37/87/5 38/88/5 39/89/5 40/90/5 41/91/5 42/92/5 43/93/5 44/94/5 35/3/5
f 12/2/6 57/1/6 66/95/6 14/96/6
f 14/96/7 66/95/7 65/97/7 15/98/7
f 15/98/8 65/97/8 64/99/8 16/100/8
f 16/100/9 64/99/9 63/101/9 17/102/9
f 17/102/10 63/101/10 62/103/10 18/104/10
f 18/104/11 62/105/11 61/106/11 19/107/11
f 19/107/12 61/106/12 60/108/12 20/109/12
f 20/109/13 60/108/13 59/110/13 21/111/13
f 21/111/14 59/110/14 58/112/14 22/113/14
f 22/113/15 58/112/15 56/38/15 13/66/15
f 23/56/16 68/55/16 77/114/16 25/115/16
f 25/115/17 77/114/17 76/116/17 26/117/17
f 26/117/18 76/116/18 75/118/18 27/119/18
f 27/119/19 75/118/19 74/120/19 28/121/19
f 28/121/20 74/120/20 73/122/20 29/123/20
f 29/123/21 73/124/21 72/125/21 30/126/21
f 30/126/22 72/125/22 71/127/22 31/128/22
f 31/128/23 71/127/23 70/129/23 32/130/23
f 32/130/24 70/129/24 69/131/24 33/132/24
f 33/132/25 69/131/25 67/51/25 24/50/25
f 78/4/26 35/3/26 44/133/26 80/134/26
f 80/134/27 44/133/27 43/135/27 81/136/27
f 81/136/28 43/135/28 42/137/28 82/138/28
f 82/138/29 42/137/29 41/139/29 83/140/29
f 83/140/30 41/139/30 40/141/30 84/142/30
f 84/143/31 40/141/31 39/144/31 85/145/31
f 85/145/32 39/144/32 38/146/32 86/147/32
f 86/147/33 38/146/33 37/148/33 87/149/33
f 87/149/34 37/148/34 36/150/34 88/151/34
f 88/151/35 36/150/35 34/49/35 79/52/35
f 45/54/36 2/53/36 11/152/36 47/153/36
f 47/153/37 11/152/37 10/154/37 48/155/37
f 48/155/38 10/154/38 9/156/38 49/157/38
f 49/157/39 9/156/39 8/158/39 50/159/39
f 50/159/40 8/158/40 7/160/40 51/161/40
f 51/162/41 7/160/41 6/163/41 52/164/41
f 52/164/42 6/163/42 5/165/42 53/166/42
f 53/166/43 5/165/43 4/167/43 54/168/43
f 54/168/44 4/167/44 3/169/44 55/170/44
f 55/170/45 3/169/45 1/67/45 46/37/45
f 56/38/46 46/37/46 1/67/46 13/66/46
